# xmcd
#
# Track frame offsets:
#	150
#	15886
#	29698
#	47329
#	66961
#	82891
#	96377
#	117151
#	134087
#	147215
#	165364
#	186641
#
# Disc length: 2617 seconds
#
# Revision: 0
# Processed by: cddbd v1.5.1PL0 Copyright (c) Steve Scherf et al.
# Submitted via: dBpowerAMP V4.0
#
DISCID=a00a370c
DTITLE=Hayley Hutchinson - Independently Blue
DYEAR=2004
DGENRE=Country
TTITLE0=Deadman
TTITLE1=Climb Through
TTITLE2=Independently Blue
TTITLE3=Find Myself Lost
TTITLE4=Minor Key
TTITLE5=I Have To Say I Love You
TTITLE6=Fall Down
TTITLE7=Here's The Love
TTITLE8=Hands
TTITLE9=Say My Goodbyes
TTITLE10=Wicked Thoughts
TTITLE11=Happy Endings
EXTD=
EXTT0=
EXTT1=
EXTT2=
EXTT3=
EXTT4=
EXTT5=
EXTT6=
EXTT7=
EXTT8=
EXTT9=
EXTT10=
EXTT11=
PLAYORDER=
